<?xml version="1.0" encoding="UTF-8"?>
<svg width="544px" height="512px" viewBox="0 0 544 512" version="1.1" xmlns="http://www.w3.org/2000/svg" xmlns:xlink="http://www.w3.org/1999/xlink">
    <!-- Generator: Sketch 49.3 (51167) - http://www.bohemiancoding.com/sketch -->
    <title>Shape</title>
    <desc>Created with Sketch.</desc>
    <defs></defs>
    <g id="Page-1" stroke="none" stroke-width="1" fill="none" fill-rule="evenodd">
        <g id="chart-pie-light" transform="translate(-1.000000, 0.000000)" fill="#FFFFFF" fill-rule="nonzero">
            <path d="M528.79,288 L291.5,288 L449.53,446.03 C452.617083,449.103536 456.79378,450.832445 461.15,450.84 C464.97,450.84 468.77,449.49 471.72,446.71 C510.42,410.25 537.04,361.1 544.85,305.85 C546.19,296.39 538.34,288 528.79,288 Z M460.88,412.12 L368.76,320 L509.64,320 C501.52,354.16 484.68,386 460.88,412.12 Z M225,288 L225,50.71 C225,41.88 217.82,34.5 209.26,34.5 C208.57,34.5 207.86,34.55 207.15,34.65 C87.99,51.49 -3.1,155.6 1.14,280.37 C5.47,407.53 114.18,512 241.13,512 C242.11,512 243.06,511.99 244.04,511.98 C294.44,511.35 341.01,495.11 379.3,467.95 C387.2,462.35 387.72,450.72 380.87,443.87 L225,288 Z M243.63,479.98 L241.12,480 C132.08,480 36.82,388.08 33.12,279.28 C29.72,179.15 97.33,92.25 193,69.83 L193,301.25 L202.37,310.62 L344.21,452.46 C313.65,470.08 279.25,479.54 243.63,479.98 Z M512.96,223.2 C504.72,103.74 409.26,8.28 289.8,0.04 C289.45,0.01 289.1,0 288.76,0 C280.1,0 273,7.45 273,16.23 L273,240 L496.77,240 C505.91,240 513.59,232.32 512.96,223.2 Z M305,208 L305,33.9 C394.25,47.71 465.28,118.75 479.1,208 L305,208 Z" id="Shape"></path>
        </g>
    </g>
</svg>